<svg width="20" height="20" viewBox="0 0 20 20" fill="none" xmlns="http://www.w3.org/2000/svg">
<path d="M19.2625 4.92825L15.0719 0.737628C14.8992 0.562453 14.6934 0.423352 14.4665 0.328408C14.2395 0.233463 13.996 0.18457 13.75 0.18457C13.504 0.18457 13.2605 0.233463 13.0336 0.328408C12.8066 0.423352 12.6008 0.562453 12.4281 0.737628L1.17813 11.9876C1.00252 12.16 0.863128 12.3657 0.768142 12.5927C0.673155 12.8197 0.62449 13.0634 0.625004 13.3095L0.625004 17.5001C0.627468 17.9966 0.825803 18.4721 1.1769 18.8232C1.528 19.1743 2.00348 19.3727 2.5 19.3751H6.69063C6.9367 19.3756 7.1804 19.327 7.4074 19.232C7.6344 19.137 7.84013 18.9976 8.01251 18.822L19.2625 7.572C19.4366 7.39867 19.5746 7.19267 19.6689 6.96582C19.7631 6.73898 19.8116 6.49576 19.8116 6.25013C19.8116 6.00449 19.7631 5.76127 19.6689 5.53443C19.5746 5.30759 19.4366 5.10159 19.2625 4.92825ZM6.53125 17.1251H2.875L2.875 13.4689L10.75 5.59388L14.4063 9.25013L6.53125 17.1251ZM16 7.65638L12.3438 4.00013L13.75 2.59388L17.4063 6.25013L16 7.65638Z" fill="black"/>
</svg>
