<svg
  width="24"
  height="24"
  viewBox="0 0 24 24"
  fill="none"
  xmlns="http://www.w3.org/2000/svg"
>
<path d="M4.68066 4.57031V11.2103" stroke="currentColor" stroke-width="0.53" />
<path d="M4.68066 14.6504V19.4304" stroke="currentColor" stroke-width="0.55" />
<path
    d="M4.6802 14.75C5.63565 14.75 6.4102 13.9755 6.4102 13.02C6.4102 12.0646 5.63565 11.29 4.6802 11.29C3.72474 11.29 2.9502 12.0646 2.9502 13.02C2.9502 13.9755 3.72474 14.75 4.6802 14.75Z"
    stroke="currentColor"
    stroke-width="0.6"
  />
<path d="M9.56055 4.57031V7.09031" stroke="currentColor" stroke-width="1.5" />
<path d="M9.56055 10.4502V19.4302" stroke="currentColor" stroke-width="1.5" />
<path
    d="M9.56008 10.4502C10.5155 10.4502 11.2901 9.67569 11.2901 8.72023C11.2901 7.76478 10.5155 6.99023 9.56008 6.99023C8.60463 6.99023 7.83008 7.76478 7.83008 8.72023C7.83008 9.67569 8.60463 10.4502 9.56008 10.4502Z"
    stroke="currentColor"
    stroke-width="1.5"
  />
<path d="M19.3203 19.4302V16.9102" stroke="currentColor" stroke-width="0.53" />
<path d="M19.3203 13.5503V4.57031" stroke="currentColor" stroke-width="0.55" />
<path
    d="M19.3198 17.0108C20.2753 17.0108 21.0498 16.2362 21.0498 15.2808C21.0498 14.3253 20.2753 13.5508 19.3198 13.5508C18.3644 13.5508 17.5898 14.3253 17.5898 15.2808C17.5898 16.2362 18.3644 17.0108 19.3198 17.0108Z"
    stroke="currentColor"
    stroke-width="0.6"
  />
<path d="M14.4404 15.6803V4.57031" stroke="currentColor" stroke-width="0.53" />
<path
    d="M14.44 19.4307C15.3954 19.4307 16.17 18.6562 16.17 17.7007C16.17 16.7453 15.3954 15.9707 14.44 15.9707C13.4845 15.9707 12.71 16.7453 12.71 17.7007C12.71 18.6562 13.4845 19.4307 14.44 19.4307Z"
    stroke="currentColor"
    stroke-width="0.6"
  />
<path
    d="M22.3596 3.44043H1.63965V20.5704H22.3596V3.44043Z"
    stroke="currentColor"
    stroke-width="0.62"
    stroke-linejoin="bevel"
  />
</svg>
