<svg width="24" height="24" viewBox="0 0 24 24" fill="none" xmlns="http://www.w3.org/2000/svg">
<path d="M15.6303 2.08984H8.36031C7.64786 2.08984 7.07031 2.6674 7.07031 3.37984V20.6198C7.07031 21.3323 7.64786 21.9098 8.36031 21.9098H15.6303C16.3428 21.9098 16.9203 21.3323 16.9203 20.6198V3.37984C16.9203 2.6674 16.3428 2.08984 15.6303 2.08984Z" stroke="black" stroke-width="1.5" stroke-linejoin="bevel"/>
<path d="M9.61035 2.09961H14.3904V2.82961C14.3904 3.29961 14.0104 3.67961 13.5404 3.67961H10.4604C9.99035 3.67961 9.61035 3.29961 9.61035 2.82961V2.09961Z" stroke="black" stroke-width="0.6" stroke-linejoin="bevel"/>
<path d="M12.0301 20.5396C12.5547 20.5396 12.9801 20.1143 12.9801 19.5896C12.9801 19.065 12.5547 18.6396 12.0301 18.6396C11.5054 18.6396 11.0801 19.065 11.0801 19.5896C11.0801 20.1143 11.5054 20.5396 12.0301 20.5396Z" stroke="black" stroke-width="0.6"/>
</svg>
