<svg width="24" height="24" viewBox="0 0 24 24" fill="none" xmlns="http://www.w3.org/2000/svg">
<path d="M6.01039 15.0801L1.65039 18.9901V22.2201C1.65039 22.2201 22.3104 22.2701 22.3504 22.2201C22.3904 22.1701 22.3504 19.0001 22.3504 19.0001L17.9304 15.1301" stroke="black" stroke-width="0.6" stroke-linejoin="bevel"/>
<path d="M11.9904 17.8402C16.3203 17.8402 19.8304 14.3301 19.8304 10.0002C19.8304 5.67024 16.3203 2.16016 11.9904 2.16016C7.66048 2.16016 4.15039 5.67024 4.15039 10.0002C4.15039 14.3301 7.66048 17.8402 11.9904 17.8402Z" stroke="black" stroke-width="1.5" stroke-linejoin="bevel"/>
<path d="M11.9898 12.8703C13.5915 12.8703 14.8898 11.5719 14.8898 9.97031C14.8898 8.36869 13.5915 7.07031 11.9898 7.07031C10.3882 7.07031 9.08984 8.36869 9.08984 9.97031C9.08984 11.5719 10.3882 12.8703 11.9898 12.8703Z" stroke="black" stroke-width="0.6" stroke-linejoin="bevel"/>
<path d="M15.5595 6.59953C15.7197 6.59953 15.8495 6.46969 15.8495 6.30953C15.8495 6.14937 15.7197 6.01953 15.5595 6.01953C15.3994 6.01953 15.2695 6.14937 15.2695 6.30953C15.2695 6.46969 15.3994 6.59953 15.5595 6.59953Z" stroke="black" stroke-width="0.6" stroke-linejoin="bevel"/>
</svg>
