<svg width="25" height="24" viewBox="0 0 25 24" fill="none" xmlns="http://www.w3.org/2000/svg">
<path d="M12.5499 9.7L11.2399 11.01L13.4199 13.24L8.95995 8.78C8.61995 8.44 8.14995 8.26 7.66995 8.33C7.12995 8.41 6.90995 8.75 6.83995 9.12C6.73995 9.61 6.91995 10.12 7.26995 10.47L13.0899 16.29L11.4799 14.68L10.1499 16.01L13.6299 19.49H17.0599L18.2999 20.73L22.2799 16.74L20.8799 15.34V12.34L16.0399 7.5L14.6799 8.86L16.4699 10.65L14.0199 8.23L12.5499 9.7ZM12.5499 9.7L14.7999 11.95" stroke="black" stroke-width="1.48" stroke-linecap="square" stroke-linejoin="bevel"/>
<path d="M3.48926 13.3204L5.18926 11.6104" stroke="black" stroke-width="0.6" stroke-linecap="square" stroke-linejoin="bevel"/>
<path d="M3.56934 5.00977L5.27934 6.71977" stroke="black" stroke-width="0.6" stroke-linecap="square" stroke-linejoin="bevel"/>
<path d="M1.75 9.19043H4.17" stroke="black" stroke-width="0.6" stroke-linecap="square" stroke-linejoin="bevel"/>
<path d="M11.7998 5L10.0898 6.71" stroke="black" stroke-width="0.6" stroke-linecap="square" stroke-linejoin="bevel"/>
<path d="M7.66992 3.26953V5.67953" stroke="black" stroke-width="0.6" stroke-linecap="square" stroke-linejoin="bevel"/>
</svg>
