<svg width="24" height="24" viewBox="0 0 24 24" fill="none" xmlns="http://www.w3.org/2000/svg">
<path d="M21.0198 6.31957C21.0898 6.31957 21.1598 6.37957 21.1598 6.45957V20.5296C21.1598 20.5996 21.0998 20.6696 21.0198 20.6696H2.97984C2.90984 20.6696 2.83984 20.6096 2.83984 20.5296V6.44957C2.83984 6.37957 2.89984 6.30957 2.97984 6.30957H21.0098M21.0098 4.80957H2.97984C2.07984 4.80957 1.33984 5.54957 1.33984 6.44957V20.5196C1.33984 21.4196 2.07984 22.1596 2.97984 22.1596H21.0098C21.9098 22.1596 22.6498 21.4196 22.6498 20.5196V6.44957C22.6498 5.54957 21.9098 4.80957 21.0098 4.80957Z" fill="black"/>
<path d="M20.0297 9.2002H3.96973V19.4902H20.0297V9.2002Z" stroke="black" stroke-width="0.6" stroke-linejoin="bevel"/>
<path d="M8.67969 14.6597L10.2997 16.2797C10.5597 16.5397 10.9897 16.5397 11.2597 16.2797L15.3197 12.2197" stroke="black" stroke-width="1.5" stroke-linejoin="bevel"/>
<path d="M7.20996 1.83984V5.19984" stroke="black" stroke-width="1.5" stroke-linejoin="bevel"/>
<path d="M16.79 1.83984V5.19984" stroke="black" stroke-width="1.5" stroke-linejoin="bevel"/>
</svg>
