<svg
  width="24"
  height="24"
  viewBox="0 0 24 24"
  fill="none"
  xmlns="http://www.w3.org/2000/svg"
>
<path
    d="M21.0704 4.83008C21.1404 4.83008 21.2104 4.89008 21.2104 4.97008V19.0401C21.2104 19.1101 21.1504 19.1801 21.0704 19.1801H3.04039C2.97039 19.1801 2.90039 19.1201 2.90039 19.0401V4.97008C2.90039 4.90008 2.96039 4.83008 3.04039 4.83008H21.0704ZM21.0704 3.33008H3.04039C2.14039 3.33008 1.40039 4.07008 1.40039 4.97008V19.0401C1.40039 19.9401 2.14039 20.6801 3.04039 20.6801H21.0704C21.9704 20.6801 22.7104 19.9401 22.7104 19.0401V4.97008C22.7104 4.07008 21.9704 3.33008 21.0704 3.33008Z"
    fill="currentColor"
  />
<path
    d="M2.40039 4.4102L12.0204 13.0802L21.8804 4.2002"
    stroke="currentColor"
    stroke-width="0.63"
    stroke-linejoin="bevel"
  />
<path
    d="M2.40039 19.2697L10.2004 11.4697"
    stroke="currentColor"
    stroke-width="0.63"
    stroke-linejoin="bevel"
  />
<path
    d="M21.6799 19.2697L13.8799 11.4697"
    stroke="currentColor"
    stroke-width="0.63"
    stroke-linejoin="bevel"
  />
</svg>
