<svg
  width="24"
  height="24"
  viewBox="0 0 24 24"
  fill="none"
  xmlns="http://www.w3.org/2000/svg"
>
<path
    d="M7.3401 15.8301C7.3401 15.8301 2.1301 15.0301 2.0901 12.4201C2.0601 10.4701 4.6601 9.41007 5.9601 9.01007C6.3901 8.88007 6.8301 8.79007 7.2801 8.74007C8.2001 8.63007 10.0401 8.45007 11.8001 8.49007"
    stroke="currentColor"
    stroke-width="1.5"
    stroke-linejoin="bevel"
  />
<path
    d="M17.3202 8.82031C17.3202 8.82031 21.9602 9.82031 21.9202 12.4303C21.8802 15.0403 16.6702 15.8403 16.6702 15.8403C16.6702 15.8403 13.0902 16.3803 10.4502 16.1403"
    stroke="currentColor"
    stroke-width="1.5"
    stroke-linejoin="bevel"
  />
<path
    d="M9.75977 16.0704L12.4398 13.4004L9.75977 16.0704ZM9.75977 16.0704L12.4398 18.7504L9.75977 16.0704Z"
    stroke="currentColor"
    stroke-width="1.5"
    stroke-linejoin="bevel"
  />
<path
    d="M14.2702 19.2603C14.2702 19.2603 13.8802 22.0703 11.2402 21.9103C8.60016 21.7503 7.63016 17.3103 7.63016 17.3103C7.63016 17.3103 6.01016 12.1503 7.63016 6.68034C7.63016 6.68034 8.63016 2.04034 11.2402 2.08034C13.0602 2.11034 14.0002 4.66034 14.4002 6.20034C14.5602 6.81034 14.6602 7.42034 14.7102 8.05034C14.8202 9.32034 15.0302 11.9403 14.9402 13.1803"
    stroke="currentColor"
    stroke-width="0.6"
    stroke-linejoin="bevel"
  />
<path
    d="M14.8897 13.47L12.2197 10.79L14.8897 13.47ZM14.8897 13.47L17.5697 10.79L14.8897 13.47Z"
    stroke="currentColor"
    stroke-width="0.6"
    stroke-linejoin="bevel"
  />
</svg>
