<svg width="24" height="24" viewBox="0 0 24 24" fill="none" xmlns="http://www.w3.org/2000/svg">
<path d="M17.1398 1.62012H6.85977C6.11418 1.62012 5.50977 2.22453 5.50977 2.97012V21.0201C5.50977 21.7657 6.11418 22.3701 6.85977 22.3701H17.1398C17.8853 22.3701 18.4898 21.7657 18.4898 21.0201V2.97012C18.4898 2.22453 17.8853 1.62012 17.1398 1.62012Z" stroke="black" stroke-width="0.6" stroke-linejoin="bevel"/>
<path d="M11.9998 8.06984C12.8227 8.06984 13.4898 7.40275 13.4898 6.57984C13.4898 5.75694 12.8227 5.08984 11.9998 5.08984C11.1769 5.08984 10.5098 5.75694 10.5098 6.57984C10.5098 7.40275 11.1769 8.06984 11.9998 8.06984Z" stroke="black" stroke-width="0.6" stroke-linejoin="bevel"/>
<path d="M11.9998 19.3296C14.0653 19.3296 15.7398 17.6552 15.7398 15.5896C15.7398 13.5241 14.0653 11.8496 11.9998 11.8496C9.93422 11.8496 8.25977 13.5241 8.25977 15.5896C8.25977 17.6552 9.93422 19.3296 11.9998 19.3296Z" stroke="black" stroke-width="1.5" stroke-linejoin="bevel"/>
<path d="M12.0004 16.7302C12.63 16.7302 13.1404 16.2198 13.1404 15.5902C13.1404 14.9606 12.63 14.4502 12.0004 14.4502C11.3707 14.4502 10.8604 14.9606 10.8604 15.5902C10.8604 16.2198 11.3707 16.7302 12.0004 16.7302Z" stroke="black" stroke-width="0.6" stroke-linejoin="bevel"/>
</svg>
