<svg
  width="24"
  height="24"
  viewBox="0 0 24 24"
  fill="none"
  xmlns="http://www.w3.org/2000/svg"
>
<path
    d="M21.1498 3.95996L21.1698 15.13L2.84984 15.15L2.82984 3.95996H21.1498ZM21.1698 2.45996H2.81984C2.00984 2.45996 1.33984 3.12996 1.33984 3.93996V15.15C1.33984 15.96 2.00984 16.63 2.81984 16.63H21.1598C21.9698 16.63 22.6398 15.96 22.6398 15.15V3.93996C22.6398 3.12996 21.9698 2.45996 21.1598 2.45996H21.1698Z"
    fill="currentColor"
  />
<path
    d="M5.02004 15.71L2.79004 22.6"
    stroke="currentColor"
    stroke-width="0.6"
    stroke-linejoin="bevel"
  />
<path
    d="M10.1303 1.4502L9.32031 3.7202"
    stroke="currentColor"
    stroke-width="0.6"
    stroke-linejoin="bevel"
  />
<path
    d="M18.9805 15.71L21.2005 22.6"
    stroke="currentColor"
    stroke-width="0.6"
    stroke-linejoin="bevel"
  />
<path
    d="M13.8604 1.4502L14.6704 3.7202"
    stroke="currentColor"
    stroke-width="0.6"
    stroke-linejoin="bevel"
  />
<path
    d="M4.87012 6.69043H10.5401"
    stroke="currentColor"
    stroke-width="0.6"
    stroke-linejoin="bevel"
  />
<path
    d="M4.87012 12.3604H10.5401"
    stroke="currentColor"
    stroke-width="0.6"
    stroke-linejoin="bevel"
  />
<path
    d="M4.87012 8.58008H19.4701"
    stroke="currentColor"
    stroke-width="0.6"
    stroke-linejoin="bevel"
  />
<path
    d="M4.87012 10.4697H19.4701"
    stroke="currentColor"
    stroke-width="0.6"
    stroke-linejoin="bevel"
  />
</svg>
