<svg
  width="24"
  height="24"
  viewBox="0 0 24 24"
  fill="none"
  xmlns="http://www.w3.org/2000/svg"
>
<path d="M10.1396 15.6999V3.41992" stroke="currentColor" stroke-width="1.5" />
<path
    d="M10.1397 19.8498C11.2001 19.8498 12.0597 18.9902 12.0597 17.9298C12.0597 16.8694 11.2001 16.0098 10.1397 16.0098C9.07934 16.0098 8.21973 16.8694 8.21973 17.9298C8.21973 18.9902 9.07934 19.8498 10.1397 19.8498Z"
    stroke="currentColor"
    stroke-width="1.5"
  />
<path
    d="M12.0803 14.1102V3.46016C12.0803 2.47016 11.2703 1.66016 10.2803 1.66016H9.99027C9.00027 1.66016 8.19027 2.47016 8.19027 3.46016V14.1102C6.77027 14.8302 5.78027 16.2802 5.78027 17.9902C5.78027 20.3902 7.73027 22.3402 10.1303 22.3402C12.5303 22.3402 14.4803 20.3902 14.4803 17.9902C14.4803 16.2902 13.4903 14.8302 12.0703 14.1102H12.0803Z"
    stroke="currentColor"
    stroke-width="0.6"
  />
<path d="M13.4297 3.75977H18.2197" stroke="currentColor" stroke-width="0.6" />
<path d="M13.4297 7.75977H18.2197" stroke="currentColor" stroke-width="0.6" />
<path d="M13.4297 6.42969H17.4997" stroke="currentColor" stroke-width="0.6" />
<path d="M13.4297 5.09961H16.5797" stroke="currentColor" stroke-width="0.6" />
<path d="M13.4297 9.08984H16.5797" stroke="currentColor" stroke-width="0.6" />
</svg>
