<svg width="24" height="24" viewBox="0 0 24 24" fill="none" xmlns="http://www.w3.org/2000/svg">
<path d="M12 22.3499V18.6299" stroke="black" stroke-width="0.6" stroke-linecap="square" stroke-linejoin="bevel"/>
<path d="M2.37012 6.15013C2.37012 6.15013 6.12012 2.05013 12.0401 2.09013C17.9601 2.13013 21.6301 6.14013 21.6301 6.14013" stroke="black" stroke-width="1.5" stroke-linecap="square" stroke-linejoin="bevel"/>
<path d="M4.12012 8.50965C4.12012 8.50965 7.29012 5.15965 12.1301 5.18965C16.9701 5.21965 19.8801 8.50965 19.8801 8.50965" stroke="black" stroke-width="1.5" stroke-linecap="square" stroke-linejoin="bevel"/>
<path d="M6.15039 10.8099C6.15039 10.8099 8.45039 8.31988 12.0404 8.34988C15.6304 8.37988 17.8604 10.8099 17.8604 10.8099" stroke="black" stroke-width="1.5" stroke-linecap="square" stroke-linejoin="bevel"/>
<path d="M8.58984 13.0302C8.58984 13.0302 9.87984 11.5202 11.9698 11.5402C14.0598 11.5602 15.3998 13.0302 15.3998 13.0302" stroke="black" stroke-width="1.5" stroke-linecap="square" stroke-linejoin="bevel"/>
<path d="M13.2697 15.9805H10.7197V18.5305H13.2697V15.9805Z" stroke="black" stroke-width="0.6" stroke-linecap="square" stroke-linejoin="bevel"/>
</svg>
