<svg
  width="24"
  height="24"
  viewBox="0 0 24 24"
  fill="none"
  xmlns="http://www.w3.org/2000/svg"
>
<path
    d="M7.62988 22.3398H16.3699"
    stroke="currentColor"
    stroke-width="0.6"
    stroke-linejoin="bevel"
  />
<path
    d="M11.3203 11.5H14.5003"
    stroke="currentColor"
    stroke-width="0.6"
    stroke-linejoin="bevel"
  />
<path
    d="M11.3203 9.66992H14.5003"
    stroke="currentColor"
    stroke-width="0.6"
    stroke-linejoin="bevel"
  />
<path
    d="M12 22.22V18.46"
    stroke="currentColor"
    stroke-width="0.6"
    stroke-linejoin="bevel"
  />
<path
    d="M15.2602 5.33031C15.2602 3.52986 13.8007 2.07031 12.0002 2.07031C10.1998 2.07031 8.74023 3.52986 8.74023 5.33031V12.2603C8.74023 14.0608 10.1998 15.5203 12.0002 15.5203C13.8007 15.5203 15.2602 14.0608 15.2602 12.2603V5.33031Z"
    stroke="currentColor"
    stroke-width="1.5"
    stroke-linejoin="bevel"
  />
<path
    d="M11.3203 7.83984H14.5003"
    stroke="currentColor"
    stroke-width="0.6"
    stroke-linejoin="bevel"
  />
<path
    d="M6.2002 8.44043V12.7004C6.2002 15.9004 8.8002 18.5004 12.0002 18.5004C15.2002 18.5004 17.8002 15.9004 17.8002 12.7004V8.44043"
    stroke="currentColor"
    stroke-width="0.6"
    stroke-linejoin="bevel"
  />
</svg>
