<svg width="24" height="24" viewBox="0 0 24 24" fill="none" xmlns="http://www.w3.org/2000/svg">
<path d="M22.3596 7.42969H1.63965V16.5697H22.3596V7.42969Z" stroke="black" stroke-width="0.6" stroke-linejoin="bevel"/>
<path d="M8.19016 16.5297C10.692 16.5297 12.7202 14.5016 12.7202 11.9997C12.7202 9.49788 10.692 7.46973 8.19016 7.46973C5.68831 7.46973 3.66016 9.49788 3.66016 11.9997C3.66016 14.5016 5.68831 16.5297 8.19016 16.5297Z" stroke="black" stroke-width="1.5" stroke-linejoin="bevel"/>
<path d="M17.9298 14.0902C19.0841 14.0902 20.0198 13.1544 20.0198 12.0002C20.0198 10.8459 19.0841 9.91016 17.9298 9.91016C16.7756 9.91016 15.8398 10.8459 15.8398 12.0002C15.8398 13.1544 16.7756 14.0902 17.9298 14.0902Z" stroke="black" stroke-width="0.6" stroke-linejoin="bevel"/>
</svg>
