<svg width="1em" height="1em" viewBox="0 0 24 24" fill="none" xmlns="http://www.w3.org/2000/svg" class="icon-3CqDw icon_large-2wsCL icon-2p0Nk" aria-hidden="true" role="presentation" focusable="false" data-testid="svg-icon"><path d="M12 17a1.5 1.5 0 1 0 0-3 1.5 1.5 0 0 0 0 3Z" fill="currentColor"></path><path fill-rule="evenodd" clip-rule="evenodd" d="M7 5a4 4 0 0 1 4-4h2a4 4 0 0 1 4 4v4a3 3 0 0 1 3 3v7a3 3 0 0 1-3 3H7a3 3 0 0 1-3-3v-7a3 3 0 0 1 3-3h8V5a2 2 0 0 0-2-2h-2a2 2 0 0 0-2 2v4H7V5Zm0 6a1 1 0 0 0-1 1v7a1 1 0 0 0 1 1h10a1 1 0 0 0 1-1v-7a1 1 0 0 0-1-1H7Z" fill="black"></path></svg>