<svg width="375" height="812" viewBox="0 0 375 812" fill="none" xmlns="http://www.w3.org/2000/svg">
<line opacity="0.75" x1="23.513" y1="-0.0535108" x2="378.795" y2="749.986" stroke="white" stroke-width="0.25"/>
<line opacity="0.75" x1="-32.187" y1="-0.0535108" x2="357.342" y2="822.285" stroke="white" stroke-width="0.25"/>
<line opacity="0.75" y1="-0.125" x2="889.93" y2="-0.125" transform="matrix(-0.428086 0.903738 0.903738 0.428086 377.5 0)" stroke="white" stroke-width="0.25"/>
<line opacity="0.75" y1="-0.125" x2="909.93" y2="-0.125" transform="matrix(-0.428086 0.903738 0.903738 0.428086 433.529 0)" stroke="white" stroke-width="0.25"/>
<line opacity="0.75" x1="-88.387" y1="-0.0535108" x2="301.142" y2="822.285" stroke="white" stroke-width="0.25"/>
<line opacity="0.75" x1="-99.887" y1="93.9465" x2="289.642" y2="916.285" stroke="white" stroke-width="0.25"/>
<line opacity="0.75" x1="-155.887" y1="93.9465" x2="233.642" y2="916.285" stroke="white" stroke-width="0.25"/>
<line opacity="0.75" x1="-166.887" y1="189.946" x2="222.642" y2="1012.28" stroke="white" stroke-width="0.25"/>
<path d="M48.5201 100.639L52.5452 92.1674H63.598L61.7487 88.2643H49.8654L44 100.639H48.5201Z" fill="white"/>
<path d="M71.9728 100.628L55.0833 65H59.4043L71.971 91.5396L84.5538 65H88.8676L71.9728 100.628Z" fill="white"/>
<path d="M82.2292 112.494V112.156L80.6598 112.246C80.3154 112.268 80.0212 112.366 79.7737 112.537C79.5279 112.709 79.4042 112.958 79.4042 113.288C79.4042 113.564 79.4974 113.79 79.684 113.966C79.8705 114.142 80.1539 114.23 80.536 114.23C81.0293 114.23 81.4257 114.077 81.7234 113.771C82.0588 113.419 82.2274 112.994 82.2274 112.494M83.7521 114.836C83.5727 114.926 83.3629 114.971 83.1243 114.971C82.8857 114.971 82.6759 114.888 82.5198 114.723C82.3638 114.558 82.2848 114.354 82.2848 114.106H82.2633C82.0983 114.39 81.8472 114.616 81.5064 114.784C81.1656 114.953 80.7943 115.037 80.3907 115.037C79.7557 115.037 79.2696 114.87 78.9342 114.538C78.5988 114.207 78.4302 113.816 78.4302 113.367C78.4302 112.897 78.6006 112.479 78.9396 112.119C79.2804 111.756 79.7862 111.557 80.4589 111.52L82.2292 111.419V111.005C82.2292 110.639 82.1324 110.366 81.9387 110.187C81.7073 109.97 81.3898 109.862 80.9862 109.862C80.5306 109.862 80.1862 109.979 79.9548 110.21C79.7755 110.39 79.675 110.61 79.6517 110.872H78.71C78.7172 110.438 78.893 110.051 79.2373 109.706C79.6553 109.288 80.2382 109.078 80.9862 109.078C81.5082 109.078 81.9405 109.181 82.2813 109.387C82.6203 109.593 82.8624 109.864 83.0041 110.199C83.1153 110.461 83.1727 110.741 83.1727 111.041V113.787C83.1727 114.042 83.2839 114.167 83.5081 114.167L83.7557 114.133V114.84L83.7521 114.836Z" fill="white"/>
<path d="M91.6747 114.892H86.7331V114.085H88.7277V107.597H86.9017V106.8H89.6927V114.085H91.6747V114.892Z" fill="white"/>
<path d="M98.9591 112.069C98.9591 111.299 98.7653 110.72 98.3761 110.332C98.0927 110.049 97.7376 109.907 97.3124 109.907C96.9537 109.907 96.6362 110.031 96.36 110.277C95.9349 110.65 95.7214 111.247 95.7214 112.07C95.7214 112.894 95.9349 113.478 96.36 113.852C96.629 114.09 96.9465 114.21 97.3124 114.21C97.7376 114.21 98.0891 114.072 98.3654 113.796C98.7618 113.4 98.9591 112.826 98.9591 112.07M99.933 112.06C99.933 113.091 99.6461 113.882 99.0703 114.434C98.629 114.845 98.0963 115.052 97.4685 115.052C97.1169 115.052 96.7869 114.976 96.4766 114.827C96.1663 114.678 95.9331 114.483 95.777 114.244V117.213H94.8246V109.222H95.664L95.7322 109.974C95.89 109.697 96.134 109.48 96.4658 109.324C96.7977 109.166 97.1331 109.089 97.4685 109.089C98.125 109.089 98.6721 109.313 99.1044 109.762C99.6568 110.33 99.933 111.096 99.933 112.06Z" fill="white"/>
<path d="M107.61 114.892H106.647V111.295C106.647 110.391 106.216 109.939 105.359 109.939C105.09 109.939 104.844 110.02 104.62 110.18C104.396 110.341 104.22 110.555 104.093 110.824C103.944 111.152 103.868 111.638 103.868 112.28V114.892H102.905V106.79H103.868V109.972C104.034 109.695 104.277 109.477 104.602 109.317C104.927 109.157 105.257 109.077 105.594 109.077C106.236 109.077 106.733 109.26 107.085 109.626C107.436 109.991 107.612 110.503 107.612 111.161V114.892H107.61Z" fill="white"/>
<path d="M114.501 112.494V112.156L112.932 112.246C112.588 112.268 112.293 112.366 112.046 112.537C111.8 112.709 111.676 112.958 111.676 113.288C111.676 113.564 111.77 113.79 111.956 113.966C112.143 114.142 112.426 114.23 112.808 114.23C113.301 114.23 113.698 114.077 113.996 113.771C114.331 113.419 114.5 112.994 114.5 112.494M116.024 114.836C115.845 114.926 115.635 114.971 115.397 114.971C115.158 114.971 114.948 114.888 114.792 114.723C114.636 114.558 114.557 114.354 114.557 114.106H114.536C114.371 114.39 114.119 114.616 113.779 114.784C113.438 114.953 113.066 115.037 112.663 115.037C112.028 115.037 111.542 114.87 111.206 114.538C110.871 114.207 110.702 113.816 110.702 113.367C110.702 112.897 110.873 112.479 111.212 112.119C111.553 111.756 112.058 111.557 112.731 111.52L114.501 111.419V111.005C114.501 110.639 114.405 110.366 114.211 110.187C113.979 109.97 113.662 109.862 113.258 109.862C112.803 109.862 112.458 109.979 112.227 110.21C112.048 110.39 111.947 110.61 111.924 110.872H110.982C110.989 110.438 111.165 110.051 111.51 109.706C111.927 109.288 112.51 109.078 113.258 109.078C113.78 109.078 114.213 109.181 114.553 109.387C114.892 109.593 115.135 109.864 115.276 110.199C115.388 110.461 115.445 110.741 115.445 111.041V113.787C115.445 114.042 115.556 114.167 115.78 114.167L116.028 114.133V114.84L116.024 114.836Z" fill="white"/>
<path d="M88.5574 122.286L86.3493 127.945H85.2175L82.9772 122.286H84.0193L85.822 127.003L87.5601 122.286H88.5574Z" fill="white"/>
<path d="M94.7654 121.198H93.4094V119.853H94.7654V121.198ZM96.6811 127.945H91.6049V127.127H93.6551V123.082H91.8291V122.275H94.6201V127.127H96.6811V127.945Z" fill="white"/>
<path d="M100.234 122.824C100.711 122.361 101.303 122.129 102.005 122.129C102.706 122.129 103.248 122.336 103.675 122.746C104.107 123.164 104.344 123.647 104.381 124.192H103.418C103.381 123.871 103.232 123.581 102.97 123.319C102.715 123.08 102.394 122.96 102.007 122.96C101.619 122.96 101.251 123.094 100.954 123.364C100.543 123.737 100.337 124.32 100.337 125.112C100.337 125.905 100.541 126.476 100.954 126.849C101.26 127.125 101.612 127.263 102.007 127.263C102.401 127.263 102.717 127.143 102.97 126.904C103.239 126.635 103.391 126.345 103.429 126.031H104.381C104.344 126.576 104.105 127.062 103.664 127.487C103.246 127.891 102.694 128.092 102.005 128.092C101.316 128.092 100.711 127.86 100.234 127.398C99.6514 126.822 99.3608 126.059 99.3608 125.112C99.3608 124.165 99.6514 123.401 100.234 122.827" fill="white"/>
<path d="M112.347 127.665C111.877 127.934 111.354 128.068 110.778 128.068C110.202 128.068 109.727 127.894 109.416 127.548C109.106 127.2 108.952 126.777 108.952 126.276V123.094H107.181V122.276H108.952V120.809L109.904 120.506V122.276H112.279V123.094H109.904V126.187C109.904 126.501 109.992 126.748 110.168 126.931C110.344 127.114 110.591 127.206 110.912 127.206C111.309 127.206 111.786 127.078 112.347 126.825V127.667V127.665Z" fill="white"/>
<path d="M119.732 125.109C119.732 124.332 119.519 123.749 119.093 123.36C118.794 123.091 118.444 122.956 118.041 122.956C117.637 122.956 117.285 123.091 116.988 123.36C116.563 123.749 116.349 124.327 116.349 125.096C116.349 125.866 116.563 126.467 116.988 126.856C117.287 127.125 117.637 127.259 118.041 127.259C118.444 127.259 118.796 127.125 119.093 126.856C119.519 126.467 119.732 125.885 119.732 125.107M120.706 125.096C120.706 126.052 120.41 126.822 119.82 127.405C119.35 127.86 118.76 128.088 118.049 128.088C117.339 128.088 116.728 127.86 116.256 127.405C115.666 126.822 115.37 126.056 115.37 125.107C115.37 124.158 115.664 123.392 116.256 122.809C116.726 122.354 117.325 122.126 118.049 122.126C118.774 122.126 119.35 122.354 119.82 122.809C120.41 123.392 120.706 124.155 120.706 125.094" fill="white"/>
<path d="M129 124.19H128.026C128.026 123.862 127.926 123.586 127.723 123.362C127.499 123.114 127.199 122.992 126.826 122.992C126.55 122.992 126.293 123.084 126.058 123.267C125.823 123.45 125.646 123.679 125.526 123.955C125.361 124.345 125.28 124.832 125.28 125.423V127.945H124.317V122.275H125.156L125.235 123.127C125.407 122.798 125.655 122.549 125.979 122.382C126.304 122.214 126.654 122.131 127.027 122.131C127.714 122.131 128.252 122.407 128.641 122.96C128.88 123.311 129 123.722 129 124.192" fill="white"/>
</svg>
