<svg width="52" height="52" viewBox="0 0 52 52" fill="none" xmlns="http://www.w3.org/2000/svg">
<path fill-rule="evenodd" clip-rule="evenodd" d="M7.74731 7.74719C6.35418 9.14032 5.57153 11.0298 5.57153 13V19.2047C5.57153 19.6972 5.7672 20.1696 6.11548 20.5179C6.46376 20.8662 6.93613 21.0618 7.42868 21.0618C7.92122 21.0618 8.39359 20.8662 8.74187 20.5179C9.09016 20.1696 9.28582 19.6972 9.28582 19.2047V13C9.28582 12.0149 9.67714 11.0701 10.3737 10.3736C11.0703 9.67702 12.015 9.2857 13.0001 9.2857H19.2085C19.7011 9.2857 20.1735 9.09003 20.5217 8.74175C20.87 8.39347 21.0657 7.9211 21.0657 7.42855C21.0657 6.93601 20.87 6.46364 20.5217 6.11536C20.1735 5.76707 19.7011 5.57141 19.2085 5.57141H13.0001C11.0299 5.57141 9.14044 6.35406 7.74731 7.74719ZM31.4822 6.11536C31.1339 6.46364 30.9382 6.93601 30.9382 7.42855C30.9382 7.9211 31.1339 8.39347 31.4822 8.74175C31.8305 9.09003 32.3028 9.2857 32.7954 9.2857H39.0001C39.9852 9.2857 40.9299 9.67702 41.6265 10.3736C42.3231 11.0701 42.7144 12.0149 42.7144 13V19.2047C42.7144 19.6972 42.9101 20.1696 43.2583 20.5179C43.6066 20.8662 44.079 21.0618 44.5715 21.0618C45.0641 21.0618 45.5365 20.8662 45.8847 20.5179C46.233 20.1696 46.4287 19.6972 46.4287 19.2047V13C46.4287 11.0298 45.646 9.14032 44.2529 7.74719C42.8598 6.35406 40.9703 5.57141 39.0001 5.57141H32.7954C32.3028 5.57141 31.8305 5.76707 31.4822 6.11536ZM8.74187 31.4821C8.39359 31.1338 7.92122 30.9381 7.42868 30.9381C6.93613 30.9381 6.46376 31.1338 6.11548 31.4821C5.7672 31.8304 5.57153 32.3027 5.57153 32.7953V39C5.57153 40.9702 6.35418 42.8596 7.74731 44.2528C9.14044 45.6459 11.0299 46.4286 13.0001 46.4286H19.2048C19.6974 46.4286 20.1697 46.2329 20.518 45.8846C20.8663 45.5363 21.062 45.064 21.062 44.5714C21.062 44.0789 20.8663 43.6065 20.518 43.2582C20.1697 42.9099 19.6974 42.7143 19.2048 42.7143H13.0001C12.015 42.7143 11.0703 42.3229 10.3737 41.6264C9.67714 40.9298 9.28582 39.9851 9.28582 39V32.7953C9.28582 32.3027 9.09016 31.8304 8.74187 31.4821ZM45.8847 31.4821C45.5365 31.1338 45.0641 30.9381 44.5715 30.9381C44.079 30.9381 43.6066 31.1338 43.2583 31.4821C42.9101 31.8304 42.7144 32.3027 42.7144 32.7953V39C42.7144 39.9851 42.3231 40.9298 41.6265 41.6264C40.9299 42.3229 39.9852 42.7143 39.0001 42.7143H32.7954C32.3028 42.7143 31.8305 42.9099 31.4822 43.2582C31.1339 43.6065 30.9382 44.0789 30.9382 44.5714C30.9382 45.064 31.1339 45.5363 31.4822 45.8846C31.8305 46.2329 32.3028 46.4286 32.7954 46.4286H39.0001C40.9703 46.4286 42.8598 45.6459 44.2529 44.2528C45.646 42.8596 46.4287 40.9702 46.4287 39V32.7953C46.4287 32.3027 46.233 31.8304 45.8847 31.4821Z" fill="white"/>
<path d="M27.3221 22.0339C27.3221 21.8002 27.2293 21.576 27.064 21.4107C26.8987 21.2454 26.6745 21.1526 26.4408 21.1526H24.678C24.4443 21.1526 24.2201 21.2454 24.0548 21.4107C23.8895 21.576 23.7967 21.8002 23.7967 22.0339V27.3221C23.7967 27.5558 23.8895 27.78 24.0548 27.9453C24.2201 28.1106 24.4443 28.2034 24.678 28.2034H26.4408C26.6745 28.2034 26.8987 28.1106 27.064 27.9453C27.2293 27.78 27.3221 27.5558 27.3221 27.3221V25.5594C27.3221 25.3256 27.2293 25.1014 27.064 24.9362C26.8987 24.7709 26.6745 24.678 26.4408 24.678H23.7967M17.6272 21.1526H19.8306C20.1812 21.1526 20.5175 21.2919 20.7654 21.5398C21.0133 21.7877 21.1526 22.124 21.1526 22.4746V23.356C21.1526 23.7066 21.0133 24.0429 20.7654 24.2908C20.5175 24.5387 20.1812 24.678 19.8306 24.678H18.5086H19.8306C20.1812 24.678 20.5175 24.8173 20.7654 25.0652C21.0133 25.3132 21.1526 25.6494 21.1526 26V26.8814C21.1526 27.232 21.0133 27.5683 20.7654 27.8162C20.5175 28.0641 20.1812 28.2034 19.8306 28.2034H17.6272M17.6272 30.8475C17.6272 32.3079 21.1791 33.4916 25.5594 33.4916C29.9397 33.4916 33.4916 32.3079 33.4916 30.8475M29.9662 22.9153V26.4407C29.9662 26.9082 30.1519 27.3566 30.4825 27.6871C30.813 28.0177 31.2614 28.2034 31.7289 28.2034C32.1964 28.2034 32.6447 28.0177 32.9753 27.6871C33.3059 27.3566 33.4916 26.9082 33.4916 26.4407V22.9153C33.4916 22.4478 33.3059 21.9994 32.9753 21.6689C32.6447 21.3383 32.1964 21.1526 31.7289 21.1526C31.2614 21.1526 30.813 21.3383 30.4825 21.6689C30.1519 21.9994 29.9662 22.4478 29.9662 22.9153V22.9153Z" stroke="white" stroke-width="2" stroke-linecap="round" stroke-linejoin="round"/>
</svg>
