<svg width="22" height="22" viewBox="0 0 22 22" fill="none" xmlns="http://www.w3.org/2000/svg">
<path d="M11.0001 16.0417C12.1459 16.0417 13.12 15.6408 13.9224 14.839C14.7242 14.0366 15.1251 13.0625 15.1251 11.9167C15.1251 10.7708 14.7242 9.79672 13.9224 8.99433C13.12 8.19256 12.1459 7.79167 11.0001 7.79167C9.85425 7.79167 8.88014 8.19256 8.07775 8.99433C7.27598 9.79672 6.87509 10.7708 6.87509 11.9167C6.87509 13.0625 7.27598 14.0366 8.07775 14.839C8.88014 15.6408 9.85425 16.0417 11.0001 16.0417ZM11.0001 14.2083C10.3584 14.2083 9.81606 13.9868 9.373 13.5437C8.92995 13.1007 8.70842 12.5583 8.70842 11.9167C8.70842 11.275 8.92995 10.7326 9.373 10.2896C9.81606 9.84653 10.3584 9.625 11.0001 9.625C11.6418 9.625 12.1841 9.84653 12.6272 10.2896C13.0702 10.7326 13.2918 11.275 13.2918 11.9167C13.2918 12.5583 13.0702 13.1007 12.6272 13.5437C12.1841 13.9868 11.6418 14.2083 11.0001 14.2083ZM3.66675 19.25C3.16259 19.25 2.73114 19.0706 2.37242 18.7119C2.01309 18.3526 1.83342 17.9208 1.83342 17.4167V6.41667C1.83342 5.9125 2.01309 5.48106 2.37242 5.12233C2.73114 4.763 3.16259 4.58333 3.66675 4.58333H6.55425L8.25009 2.75H13.7501L15.4459 4.58333H18.3334C18.8376 4.58333 19.2693 4.763 19.6287 5.12233C19.9874 5.48106 20.1668 5.9125 20.1668 6.41667V17.4167C20.1668 17.9208 19.9874 18.3526 19.6287 18.7119C19.2693 19.0706 18.8376 19.25 18.3334 19.25H3.66675ZM18.3334 17.4167V6.41667H14.6209L12.948 4.58333H9.05217L7.37925 6.41667H3.66675V17.4167H18.3334Z" fill="white"/>
</svg>
