<svg width="18" height="18" viewBox="0 0 18 18" fill="none" xmlns="http://www.w3.org/2000/svg">
<path d="M9.75 14.25V13.3125C9.75 11.7593 8.31075 10.5 6.5355 10.5H5.4645C3.68925 10.5 2.25 11.7593 2.25 13.3125V14.25M11.4645 10.5H12.5355C14.3108 10.5 15.75 11.7593 15.75 13.3125V14.25M11.25 3.87751C11.5893 3.75796 11.9523 3.72151 12.3086 3.77122C12.6649 3.82093 13.0041 3.95535 13.2977 4.16321C13.5914 4.37108 13.8309 4.64631 13.9962 4.96584C14.1615 5.28537 14.2477 5.63988 14.2477 5.99963C14.2477 6.35939 14.1615 6.71389 13.9962 7.03342C13.8309 7.35295 13.5914 7.62819 13.2977 7.83605C13.0041 8.04391 12.6649 8.17834 12.3086 8.22805C11.9523 8.27776 11.5893 8.24131 11.25 8.12176M8.25 6.00001C8.25 6.59675 8.01295 7.16904 7.59099 7.591C7.16903 8.01296 6.59674 8.25001 6 8.25001C5.40326 8.25001 4.83097 8.01296 4.40901 7.591C3.98705 7.16904 3.75 6.59675 3.75 6.00001C3.75 5.40327 3.98705 4.83098 4.40901 4.40902C4.83097 3.98706 5.40326 3.75001 6 3.75001C6.59674 3.75001 7.16903 3.98706 7.59099 4.40902C8.01295 4.83098 8.25 5.40327 8.25 6.00001V6.00001Z" stroke="white" stroke-width="1.1" stroke-linecap="round" stroke-linejoin="round"/>
</svg>
