<svg width="20" height="20" viewBox="0 0 20 20" fill="none" xmlns="http://www.w3.org/2000/svg">
<path d="M10.6667 7.33325H13.3333M6 7.99992V11.9999M4 9.99992H8M13.3333 12.6666H16M0.666672 4.66659V15.3333C0.666672 15.6869 0.807148 16.026 1.0572 16.2761C1.30724 16.5261 1.64638 16.6666 2.00001 16.6666H18C18.3536 16.6666 18.6928 16.5261 18.9428 16.2761C19.1929 16.026 19.3333 15.6869 19.3333 15.3333V4.66659C19.3333 4.31296 19.1929 3.97382 18.9428 3.72378C18.6928 3.47373 18.3536 3.33325 18 3.33325H2.00001C1.64638 3.33325 1.30724 3.47373 1.0572 3.72378C0.807148 3.97382 0.666672 4.31296 0.666672 4.66659Z" stroke="white" stroke-width="1.33333"/>
</svg>
