<svg width="18" height="18" viewBox="0 0 18 18" fill="none" xmlns="http://www.w3.org/2000/svg">
<path d="M9 0.875C7.39303 0.875 5.82214 1.35152 4.486 2.24431C3.14985 3.1371 2.10844 4.40605 1.49348 5.8907C0.87852 7.37535 0.717618 9.00901 1.03112 10.5851C1.34463 12.1612 2.11846 13.6089 3.25476 14.7452C4.39106 15.8815 5.8388 16.6554 7.4149 16.9689C8.99099 17.2824 10.6247 17.1215 12.1093 16.5065C13.594 15.8916 14.8629 14.8502 15.7557 13.514C16.6485 12.1779 17.125 10.607 17.125 9C17.1229 6.84575 16.2662 4.78033 14.743 3.25704C13.2197 1.73376 11.1543 0.877068 9 0.875ZM9 15.875C7.64026 15.875 6.31105 15.4718 5.18046 14.7164C4.04987 13.9609 3.16868 12.8872 2.64833 11.6309C2.12798 10.3747 1.99183 8.99237 2.2571 7.65875C2.52238 6.32513 3.17716 5.10013 4.13864 4.13864C5.10013 3.17716 6.32514 2.52237 7.65876 2.2571C8.99238 1.99183 10.3747 2.12798 11.631 2.64833C12.8872 3.16868 13.9609 4.04987 14.7164 5.18045C15.4718 6.31104 15.875 7.64025 15.875 9C15.8729 10.8227 15.1479 12.5702 13.8591 13.8591C12.5702 15.1479 10.8227 15.8729 9 15.875ZM8.375 9.625V5.25C8.375 5.08424 8.44085 4.92527 8.55806 4.80806C8.67527 4.69085 8.83424 4.625 9 4.625C9.16576 4.625 9.32474 4.69085 9.44195 4.80806C9.55916 4.92527 9.625 5.08424 9.625 5.25V9.625C9.625 9.79076 9.55916 9.94973 9.44195 10.0669C9.32474 10.1842 9.16576 10.25 9 10.25C8.83424 10.25 8.67527 10.1842 8.55806 10.0669C8.44085 9.94973 8.375 9.79076 8.375 9.625ZM9.9375 12.4375C9.9375 12.6229 9.88252 12.8042 9.77951 12.9583C9.67649 13.1125 9.53007 13.2327 9.35877 13.3036C9.18746 13.3746 8.99896 13.3932 8.81711 13.357C8.63525 13.3208 8.4682 13.2315 8.33709 13.1004C8.20598 12.9693 8.11669 12.8023 8.08052 12.6204C8.04434 12.4385 8.06291 12.25 8.13387 12.0787C8.20482 11.9074 8.32499 11.761 8.47916 11.658C8.63333 11.555 8.81458 11.5 9 11.5C9.24864 11.5 9.4871 11.5988 9.66292 11.7746C9.83873 11.9504 9.9375 12.1889 9.9375 12.4375Z" fill="#FF3737"/>
</svg>
