<svg width="17" height="17" viewBox="0 0 17 17" fill="none" xmlns="http://www.w3.org/2000/svg">
<path d="M8.125 0C6.51803 0 4.94714 0.476523 3.611 1.36931C2.27485 2.2621 1.23344 3.53105 0.618482 5.0157C0.00352044 6.50035 -0.157382 8.13401 0.156123 9.71011C0.469628 11.2862 1.24346 12.7339 2.37976 13.8702C3.51606 15.0065 4.9638 15.7804 6.53989 16.0939C8.11599 16.4074 9.74966 16.2465 11.2343 15.6315C12.719 15.0166 13.9879 13.9752 14.8807 12.639C15.7735 11.3029 16.25 9.73197 16.25 8.125C16.2479 5.97075 15.3912 3.90533 13.868 2.38204C12.3447 0.858757 10.2793 0.00206841 8.125 0ZM8.125 15C6.76526 15 5.43605 14.5968 4.30546 13.8414C3.17487 13.0859 2.29368 12.0122 1.77333 10.7559C1.25298 9.49971 1.11683 8.11737 1.3821 6.78375C1.64738 5.45013 2.30216 4.22513 3.26364 3.26364C4.22513 2.30215 5.45014 1.64737 6.78376 1.3821C8.11738 1.11683 9.49971 1.25298 10.756 1.77333C12.0122 2.29368 13.0859 3.17487 13.8414 4.30545C14.5968 5.43604 15 6.76525 15 8.125C14.9979 9.94773 14.2729 11.6952 12.9841 12.9841C11.6952 14.2729 9.94773 14.9979 8.125 15ZM7.5 8.75V4.375C7.5 4.20924 7.56585 4.05027 7.68306 3.93306C7.80027 3.81585 7.95924 3.75 8.125 3.75C8.29076 3.75 8.44974 3.81585 8.56695 3.93306C8.68416 4.05027 8.75 4.20924 8.75 4.375V8.75C8.75 8.91576 8.68416 9.07473 8.56695 9.19194C8.44974 9.30915 8.29076 9.375 8.125 9.375C7.95924 9.375 7.80027 9.30915 7.68306 9.19194C7.56585 9.07473 7.5 8.91576 7.5 8.75ZM9.0625 11.5625C9.0625 11.7479 9.00752 11.9292 8.90451 12.0833C8.80149 12.2375 8.65507 12.3577 8.48377 12.4286C8.31246 12.4996 8.12396 12.5182 7.94211 12.482C7.76025 12.4458 7.5932 12.3565 7.46209 12.2254C7.33098 12.0943 7.24169 11.9273 7.20552 11.7454C7.16934 11.5635 7.18791 11.375 7.25887 11.2037C7.32982 11.0324 7.44999 10.886 7.60416 10.783C7.75833 10.68 7.93958 10.625 8.125 10.625C8.37364 10.625 8.6121 10.7238 8.78792 10.8996C8.96373 11.0754 9.0625 11.3139 9.0625 11.5625Z" fill="black"/>
</svg>
