<svg width="20" height="16" viewBox="0 0 20 16" fill="none" xmlns="http://www.w3.org/2000/svg">
<path d="M18 4.00024L10 9.00024L2 4.00024V2.00024L10 7.00024L18 2.00024M18 0.000244141H2C0.89 0.000244141 0 0.890244 0 2.00024V14.0002C0 14.5307 0.210714 15.0394 0.585786 15.4145C0.960859 15.7895 1.46957 16.0002 2 16.0002H18C18.5304 16.0002 19.0391 15.7895 19.4142 15.4145C19.7893 15.0394 20 14.5307 20 14.0002V2.00024C20 1.46981 19.7893 0.961103 19.4142 0.58603C19.0391 0.210958 18.5304 0.000244141 18 0.000244141Z" fill="white"/>
</svg>
