<svg width="40" height="40" viewBox="0 0 40 40" fill="none" xmlns="http://www.w3.org/2000/svg">
<circle opacity="0.1" cx="20" cy="20" r="20" fill="white"/>
<path d="M20.1 26.55L20 26.65L19.89 26.55C15.14 22.24 12 19.39 12 16.5C12 14.5 13.5 13 15.5 13C17.04 13 18.54 14 19.07 15.36H20.93C21.46 14 22.96 13 24.5 13C26.5 13 28 14.5 28 16.5C28 19.39 24.86 22.24 20.1 26.55ZM24.5 11C22.76 11 21.09 11.81 20 13.08C18.91 11.81 17.24 11 15.5 11C12.42 11 10 13.41 10 16.5C10 20.27 13.4 23.36 18.55 28.03L20 29.35L21.45 28.03C26.6 23.36 30 20.27 30 16.5C30 13.41 27.58 11 24.5 11Z" fill="white"/>
</svg>
