<svg width="40" height="40" viewBox="0 0 40 40" fill="none" xmlns="http://www.w3.org/2000/svg">
<circle opacity="0.1" cx="20" cy="20" r="20" fill="white"/>
<path d="M20.0833 25.4583L20 25.5417L19.9083 25.4583C15.95 21.8667 13.3333 19.4917 13.3333 17.0833C13.3333 15.4167 14.5833 14.1667 16.25 14.1667C17.5333 14.1667 18.7833 15 19.225 16.1333H20.775C21.2167 15 22.4667 14.1667 23.75 14.1667C25.4167 14.1667 26.6667 15.4167 26.6667 17.0833C26.6667 19.4917 24.05 21.8667 20.0833 25.4583ZM23.75 12.5C22.3 12.5 20.9083 13.175 20 14.2333C19.0917 13.175 17.7 12.5 16.25 12.5C13.6833 12.5 11.6667 14.5083 11.6667 17.0833C11.6667 20.225 14.5 22.8 18.7917 26.6917L20 27.7917L21.2083 26.6917C25.5 22.8 28.3333 20.225 28.3333 17.0833C28.3333 14.5083 26.3167 12.5 23.75 12.5Z" fill="white"/>
<path d="M17.0833 13.75L20 15.8333L21.25 14.5833L22.9167 13.75L25 14.1667L26.25 15L27.0833 16.25L26.6667 18.75L24.1667 22.5L20 26.25L16.25 22.5L13.3333 19.5833L12.9167 16.6667L14.1667 14.5833L17.0833 13.75Z" fill="white"/>
</svg>
