<svg version="1.2" xmlns="http://www.w3.org/2000/svg" viewBox="0 0 25 25" width="25" height="25">
	<title>av-svg</title>
	<style>
		.s0 { fill: #ffffff } 
		.s1 { fill: none;stroke: #0000ff } 
		.s2 { fill: #0000ff } 
	</style>
	<g id="Layer">
		<path id="Layer" class="s0" d="m12.5 25c-6.9 0-12.5-5.6-12.5-12.5 0-6.9 5.6-12.5 12.5-12.5 6.9 0 12.5 5.6 12.5 12.5 0 6.9-5.6 12.5-12.5 12.5z"/>
		<path id="Layer" class="s1" d="m12.5 24.5c-6.6 0-12-5.4-12-12 0-6.6 5.4-12 12-12 6.6 0 12 5.4 12 12 0 6.6-5.4 12-12 12z"/>
	</g>
	<path id="Layer" class="s2" d="m7.6 18.4l1.3-2.6h3.4l-0.6-1.2h-3.7l-1.7 3.8z"/>
	<path id="Layer" class="s2" d="m14.8 18.4l-5.2-10.9h1.4l3.8 8.1 3.9-8.1h1.3z"/>
</svg>