<svg width="18" height="18" viewBox="0 0 18 18" fill="none" xmlns="http://www.w3.org/2000/svg">
<path d="M16 0.000244141H2C1.46957 0.000244141 0.960859 0.210958 0.585786 0.58603C0.210714 0.961103 0 1.46981 0 2.00024V16.0002C0 16.5307 0.210714 17.0394 0.585786 17.4145C0.960859 17.7895 1.46957 18.0002 2 18.0002H16C16.5304 18.0002 17.0391 17.7895 17.4142 17.4145C17.7893 17.0394 18 16.5307 18 16.0002V2.00024C18 1.46981 17.7893 0.961103 17.4142 0.58603C17.0391 0.210958 16.5304 0.000244141 16 0.000244141ZM10.94 11.8102L8.73 14.0002C8.08 14.6702 7.22 15.0002 6.36 15.0002C5.5 15.0002 4.64 14.6702 4 14.0002C2.67 12.7102 2.67 10.5802 4 9.26024L5.35 7.90024L5.34 8.50024C5.33 9.00024 5.41 9.50024 5.57 9.94024L5.62 10.0902L5.22 10.5002C5.06846 10.6489 4.94808 10.8263 4.8659 11.022C4.78372 11.2178 4.7414 11.428 4.7414 11.6402C4.7414 11.8525 4.78372 12.0627 4.8659 12.2584C4.94808 12.4542 5.06846 12.6316 5.22 12.7802C5.83 13.4002 6.89 13.4002 7.5 12.7802L9.7 10.5902C10 10.2802 10.18 9.87024 10.18 9.44024C10.18 9.00024 10 8.61024 9.7 8.30024C9.61776 8.21929 9.55245 8.12278 9.50787 8.01634C9.46329 7.90989 9.44033 7.79565 9.44033 7.68024C9.44033 7.56484 9.46329 7.45059 9.50787 7.34415C9.55245 7.23771 9.61776 7.1412 9.7 7.06024C10.03 6.73024 10.61 6.74024 10.94 7.06024C11.57 7.70024 11.92 8.54024 11.92 9.44024C11.92 10.3402 11.57 11.1802 10.94 11.8102ZM14 8.74024L12.66 10.1002V9.50024C12.67 9.00024 12.59 8.50024 12.43 8.06024L12.38 7.92024L12.78 7.50024C12.9315 7.35157 13.0519 7.17418 13.1341 6.97844C13.2163 6.7827 13.2586 6.57254 13.2586 6.36024C13.2586 6.14795 13.2163 5.93779 13.1341 5.74205C13.0519 5.54631 12.9315 5.36891 12.78 5.22024C12.17 4.60024 11.1 4.61024 10.5 5.22024L8.3 7.42024C8 7.72024 7.82 8.13024 7.82 8.56024C7.82 9.00024 8 9.39024 8.3 9.70024C8.47 9.86024 8.56 10.0802 8.56 10.3202C8.56 10.5602 8.47 10.7802 8.3 10.9402C8.21858 11.0212 8.12177 11.085 8.01529 11.128C7.9088 11.1709 7.7948 11.1921 7.68 11.1902C7.46 11.1902 7.23 11.1102 7.06 10.9402C6.4309 10.3099 6.07758 9.45578 6.07758 8.56524C6.07758 7.67471 6.4309 6.82055 7.06 6.19024L9.27 4.00024C9.57828 3.68561 9.94625 3.43565 10.3523 3.265C10.7584 3.09436 11.1945 3.00646 11.635 3.00646C12.0755 3.00646 12.5116 3.09436 12.9177 3.265C13.3238 3.43565 13.6917 3.68561 14 4.00024C14.65 4.62024 15 5.46024 15 6.36024C15 7.26024 14.65 8.10024 14 8.74024Z" fill="white"/>
</svg>
