<svg width="19" height="19" viewBox="0 0 19 19" fill="none" xmlns="http://www.w3.org/2000/svg">
<path d="M13.5 18.7218C6.05625 18.7218 0 12.6656 0 5.22181C0.00281471 3.94499 0.469194 2.71263 1.31243 1.75386C2.15566 0.795096 3.31837 0.175157 4.58437 0.00930916C4.90711 -0.0264743 5.23284 0.0414738 5.51435 0.2033C5.79586 0.365126 6.01851 0.612416 6.15 0.909309L8.03437 5.30618C8.13212 5.53441 8.17131 5.78344 8.14839 6.03065C8.12547 6.27787 8.04116 6.51544 7.90312 6.72181L6.34687 9.10306C7.05158 10.5332 8.21273 11.6878 9.64687 12.3843L12 10.8187C12.2061 10.6797 12.4443 10.5956 12.692 10.5743C12.9397 10.553 13.1888 10.5951 13.4156 10.6968L17.8125 12.5718C18.1094 12.7033 18.3567 12.9259 18.5185 13.2075C18.6803 13.489 18.7483 13.8147 18.7125 14.1374C18.5467 15.4034 17.9267 16.5661 16.9679 17.4094C16.0092 18.2526 14.7768 18.719 13.5 18.7218V18.7218ZM4.77187 1.49993C3.86714 1.61624 3.03582 2.05832 2.43356 2.74341C1.8313 3.42851 1.4994 4.30963 1.5 5.22181C1.50248 8.40365 2.76756 11.4544 5.01746 13.7043C7.26736 15.9542 10.3182 17.2193 13.5 17.2218C14.4122 17.2224 15.2933 16.8905 15.9784 16.2883C16.6635 15.686 17.1056 14.8547 17.2219 13.9499L12.825 12.0749L10.4812 13.6406C10.2656 13.7831 10.0168 13.8675 9.75887 13.8856C9.50098 13.9037 9.2428 13.8548 9.00937 13.7437C7.26276 12.8988 5.84994 11.4926 4.99687 9.74993C4.8844 9.5173 4.83393 9.25955 4.85036 9.00168C4.86678 8.7438 4.94955 8.49454 5.09062 8.27806L6.65625 5.89681L4.77187 1.49993Z" fill="white"/>
</svg>
