<svg width="40" height="40" viewBox="0 0 40 40" fill="none" xmlns="http://www.w3.org/2000/svg">
<path fill-rule="evenodd" clip-rule="evenodd" d="M29 22C29 21.448 28.552 21 28 21H22C21.448 21 21 21.448 21 22V28C21 28.552 21.448 29 22 29H28C28.552 29 29 28.552 29 28V22ZM15.586 26H14C13.204 26 12.441 25.684 11.879 25.121C11.316 24.559 11 23.796 11 23C11 22.891 11 22.443 11 21.999C11 21.447 11.448 20.999 12 20.999C12.552 20.999 13 21.447 13 21.999V23C13 23.265 13.105 23.52 13.293 23.707C13.48 23.895 13.735 24 14 24H15.586L15.293 23.707C14.903 23.317 14.903 22.683 15.293 22.293C15.683 21.903 16.317 21.903 16.707 22.293L18.707 24.293C19.098 24.683 19.098 25.317 18.707 25.707L16.707 27.707C16.317 28.097 15.683 28.097 15.293 27.707C14.903 27.317 14.903 26.683 15.293 26.293L15.586 26ZM23 23V27H27V23H23ZM24.414 16L24.707 16.293C25.097 16.683 25.097 17.317 24.707 17.707C24.317 18.097 23.683 18.097 23.293 17.707L21.293 15.707C20.902 15.317 20.902 14.683 21.293 14.293L23.293 12.293C23.683 11.903 24.317 11.903 24.707 12.293C25.097 12.683 25.097 13.317 24.707 13.707L24.414 14H26C26.796 14 27.559 14.316 28.121 14.879C28.684 15.441 29 16.204 29 17V18.001C29 18.553 28.552 19.001 28 19.001C27.448 19.001 27 18.553 27 18.001C27 17.557 27 17.109 27 17C27 16.735 26.895 16.48 26.707 16.293C26.52 16.105 26.265 16 26 16H24.414ZM19 12C19 11.448 18.552 11 18 11H12C11.448 11 11 11.448 11 12V18C11 18.552 11.448 19 12 19H18C18.552 19 19 18.552 19 18V12ZM13 13V17H17V13H13Z" fill="white"/>
</svg>
