<svg width="24" height="24" viewBox="0 0 24 24" fill="none" xmlns="http://www.w3.org/2000/svg">
<path d="M6 22.001H18C18.5304 22.001 19.0391 21.7903 19.4142 21.4152C19.7893 21.0401 20 20.5314 20 20.001V8.00098L14 2.00098H6C5.46957 2.00098 4.96086 2.21169 4.58579 2.58676C4.21071 2.96184 4 3.47054 4 4.00098V20.001C4 20.5314 4.21071 21.0401 4.58579 21.4152C4.96086 21.7903 5.46957 22.001 6 22.001ZM13 4.00098L18 9.00098H13V4.00098ZM8.5 11.001C8.69705 11.001 8.89215 11.0399 9.07418 11.1154C9.2562 11.1909 9.42158 11.3014 9.56087 11.4408C9.70016 11.5802 9.81063 11.7456 9.88597 11.9277C9.96132 12.1098 10.0001 12.3049 10 12.502C9.99993 12.699 9.96106 12.8941 9.88559 13.0762C9.81012 13.2582 9.69954 13.4236 9.56016 13.5628C9.42078 13.7021 9.25533 13.8126 9.07325 13.8879C8.89118 13.9633 8.69605 14.002 8.499 14.002C8.10104 14.0018 7.71944 13.8436 7.43813 13.5621C7.15683 13.2806 6.99887 12.8989 6.999 12.501C6.99913 12.103 7.15735 11.7214 7.43884 11.4401C7.72033 11.1588 8.10204 11.0008 8.5 11.001ZM9 16.001L10.597 17.364L13 13.001L17 19.001H7L9 16.001Z" fill="#0000FF"/>
</svg>
