<svg width="20" height="20" viewBox="0 0 20 20" fill="none" xmlns="http://www.w3.org/2000/svg">
<path d="M19.1797 12.5H18.2422L17.5781 4.84375C17.5521 4.19271 17.2982 3.63932 16.8164 3.18359C16.3346 2.72786 15.7812 2.5 15.1562 2.5H10.8203V0.820312C10.8203 0.273438 10.5469 0 10 0C9.45312 0 9.17969 0.273438 9.17969 0.820312V2.5H4.84375C4.21875 2.5 3.66536 2.72786 3.18359 3.18359C2.70182 3.63932 2.44792 4.19271 2.42188 4.84375L1.75781 12.5H0.820312C0.585938 12.5 0.390625 12.5781 0.234375 12.7344C0.078125 12.8906 0 13.0859 0 13.3203C0 13.5807 0.078125 13.7891 0.234375 13.9453C0.390625 14.1016 0.585938 14.1797 0.820312 14.1797H3.90625L2.5 18.9062C2.42188 19.1146 2.44792 19.3229 2.57812 19.5312C2.70833 19.7396 2.8776 19.8698 3.08594 19.9219H3.32031C3.65885 19.9219 3.94531 19.7266 4.17969 19.3359L5.66406 14.1797H9.17969V17.5C9.17969 18.0469 9.45312 18.3203 10 18.3203C10.5469 18.3203 10.8203 18.0469 10.8203 17.5V14.1797H14.3359L15.8203 19.4141C15.8984 19.8047 16.1849 20 16.6797 20H16.9141C17.4089 19.8177 17.6042 19.4792 17.5 18.9844L16.0938 14.1797H19.1797C19.4141 14.1797 19.6094 14.1016 19.7656 13.9453C19.9219 13.7891 20 13.5807 20 13.3203C20 13.0859 19.9219 12.8906 19.7656 12.7344C19.6094 12.5781 19.4141 12.5 19.1797 12.5ZM3.39844 12.5L4.10156 4.92188C4.10156 4.71354 4.1862 4.53776 4.35547 4.39453C4.52474 4.2513 4.71354 4.17969 4.92188 4.17969H15.1562C15.3906 4.17969 15.5924 4.2513 15.7617 4.39453C15.931 4.53776 16.0156 4.71354 16.0156 4.92188L16.6797 12.5H3.39844Z" fill="white"/>
</svg>
