<svg width="22" height="17" viewBox="0 0 22 17" fill="none" xmlns="http://www.w3.org/2000/svg">
<path d="M14.8473 10.6303C14.954 10.7329 15.0395 10.8556 15.0987 10.9914C15.1579 11.1271 15.1897 11.2732 15.1923 11.4213C15.1949 11.5694 15.1683 11.7165 15.1139 11.8543C15.0595 11.992 14.9785 12.1177 14.8754 12.224C14.7705 12.3321 14.6452 12.4183 14.5069 12.4779C14.3685 12.5374 14.2198 12.569 14.0692 12.5709C13.776 12.5669 13.495 12.4532 13.2817 12.2521C12.6069 11.6091 11.7106 11.2504 10.7785 11.2504C9.84645 11.2504 8.95013 11.6091 8.27541 12.2521C8.16891 12.3549 8.04321 12.4358 7.90549 12.49C7.76776 12.5442 7.6207 12.5708 7.47271 12.5682C7.32471 12.5655 7.17868 12.5338 7.04296 12.4748C6.90723 12.4157 6.78446 12.3305 6.68166 12.224C6.57886 12.1175 6.49804 11.9918 6.44382 11.8541C6.3896 11.7164 6.36303 11.5693 6.36564 11.4213C6.36826 11.2733 6.39999 11.1273 6.45904 10.9916C6.51809 10.8558 6.60329 10.7331 6.70978 10.6303C7.80536 9.58274 9.26274 8.99811 10.7785 8.99811C12.2943 8.99811 13.7517 9.58274 14.8473 10.6303V10.6303ZM10.7785 4.49902C8.06337 4.489 5.4546 5.55407 3.52228 7.46152C3.41645 7.56399 3.33196 7.68641 3.27369 7.82171C3.21542 7.95701 3.18452 8.1025 3.18278 8.2498C3.18104 8.39711 3.20848 8.54329 3.26354 8.67993C3.31859 8.81657 3.40016 8.94095 3.50353 9.0459C3.60681 9.15202 3.73002 9.2367 3.8661 9.2951C4.00218 9.35349 4.14845 9.38445 4.29652 9.38619C4.44458 9.38793 4.59154 9.36043 4.72895 9.30525C4.86637 9.25007 4.99154 9.16831 5.09728 9.06465C6.6159 7.58042 8.65506 6.74942 10.7785 6.74942C12.902 6.74942 14.9412 7.58042 16.4598 9.06465C16.67 9.2706 16.953 9.38517 17.2473 9.3834C17.3973 9.38325 17.5458 9.35335 17.6842 9.29542C17.8226 9.23749 17.9481 9.15268 18.0535 9.0459C18.1569 8.94095 18.2385 8.81657 18.2935 8.67993C18.3486 8.54329 18.376 8.39711 18.3743 8.2498C18.3725 8.1025 18.3416 7.95701 18.2834 7.82171C18.2251 7.68641 18.1406 7.56399 18.0348 7.46152C16.1025 5.55407 13.4937 4.489 10.7785 4.49902V4.49902ZM21.2223 4.27402C18.4362 1.53492 14.6856 0 10.7785 0C6.8715 0 3.12086 1.53492 0.334783 4.27402C0.122196 4.48412 0.00177768 4.77007 1.95243e-05 5.06896C-0.00173863 5.36784 0.115307 5.65519 0.325408 5.86777C0.53551 6.08036 0.821456 6.20078 1.12034 6.20254C1.41923 6.2043 1.70657 6.08725 1.91916 5.87715C4.28147 3.55148 7.46353 2.24797 10.7785 2.24797C14.0935 2.24797 17.2756 3.55148 19.6379 5.87715C19.8471 6.08567 20.13 6.20353 20.4254 6.20527C20.6503 6.20774 20.8707 6.14277 21.0583 6.01874C21.2458 5.89471 21.3919 5.71732 21.4777 5.50945C21.5635 5.30158 21.585 5.07277 21.5395 4.85256C21.4939 4.63235 21.3835 4.43084 21.2223 4.27402V4.27402ZM10.7785 13.124C10.4819 13.124 10.1919 13.212 9.94518 13.3768C9.6985 13.5416 9.50624 13.7759 9.39271 14.05C9.27918 14.3241 9.24948 14.6257 9.30735 14.9167C9.36523 15.2076 9.50809 15.4749 9.71787 15.6847C9.92765 15.8945 10.1949 16.0373 10.4859 16.0952C10.7769 16.1531 11.0785 16.1234 11.3526 16.0098C11.6266 15.8963 11.8609 15.7041 12.0257 15.4574C12.1906 15.2107 12.2785 14.9207 12.2785 14.624C12.2785 14.2262 12.1205 13.8447 11.8392 13.5634C11.5579 13.2821 11.1764 13.124 10.7785 13.124V13.124Z" fill="white"/>
</svg>
