<svg width="271" height="210" viewBox="0 0 271 210" fill="none" xmlns="http://www.w3.org/2000/svg">
<path d="M3.5 40C3.5 19.8416 19.8416 3.5 40 3.5H231C251.158 3.5 267.5 19.8416 267.5 40V206.5H3.5V40Z" fill="url(#paint0_linear_119_3059)" stroke="url(#paint1_linear_119_3059)" stroke-width="7"/>
<rect x="18" y="39" width="238" height="42" rx="8.62" fill="#252525" fill-opacity="0.65"/>
<rect x="18" y="91" width="238" height="42" rx="8.62" fill="#252525" fill-opacity="0.65"/>
<rect x="51" y="49" width="79" height="9" rx="2" fill="#6C6B6C"/>
<rect x="51" y="64" width="128" height="7" rx="2" fill="#6C6B6C" fill-opacity="0.25"/>
<rect x="203" y="49.1154" width="40" height="20.7692" rx="10.3846" fill="#6C6B6C" fill-opacity="0.25"/>
<circle cx="232.615" cy="59.5001" r="9.61539" fill="#0000FF"/>
<path d="M70 7H202V14C202 19.5228 197.523 24 192 24H80C74.4772 24 70 19.5228 70 14V7Z" fill="black"/>
<path d="M36 60C36.4583 60 36.8508 59.8367 37.1775 59.51C37.5036 59.1839 37.6666 58.7917 37.6666 58.3334C37.6666 57.875 37.5036 57.4825 37.1775 57.1559C36.8508 56.8297 36.4583 56.6667 36 56.6667C35.5416 56.6667 35.1494 56.8297 34.8233 57.1559C34.4966 57.4825 34.3333 57.875 34.3333 58.3334C34.3333 58.7917 34.4966 59.1839 34.8233 59.51C35.1494 59.8367 35.5416 60 36 60ZM36 66.125C37.6944 64.5695 38.9514 63.1561 39.7708 61.885C40.5903 60.6145 41 59.4861 41 58.5C41 56.9861 40.5172 55.7464 39.5516 54.7809C38.5866 53.8159 37.4028 53.3334 36 53.3334C34.5972 53.3334 33.413 53.8159 32.4475 54.7809C31.4825 55.7464 31 56.9861 31 58.5C31 59.4861 31.4097 60.6145 32.2291 61.885C33.0486 63.1561 34.3055 64.5695 36 66.125ZM36 68.3334C33.7639 66.4306 32.0939 64.6631 30.99 63.0309C29.8855 61.3992 29.3333 59.8889 29.3333 58.5C29.3333 56.4167 30.0036 54.757 31.3441 53.5209C32.6841 52.2847 34.2361 51.6667 36 51.6667C37.7639 51.6667 39.3158 52.2847 40.6558 53.5209C41.9964 54.757 42.6666 56.4167 42.6666 58.5C42.6666 59.8889 42.1147 61.3992 41.0108 63.0309C39.9064 64.6631 38.2361 66.4306 36 68.3334Z" fill="#6C6B6C"/>
<defs>
<linearGradient id="paint0_linear_119_3059" x1="135.5" y1="0" x2="135.5" y2="210" gradientUnits="userSpaceOnUse">
<stop stop-color="#181818"/>
<stop offset="1" stop-color="#181818" stop-opacity="0"/>
</linearGradient>
<linearGradient id="paint1_linear_119_3059" x1="135.5" y1="0" x2="135.5" y2="210" gradientUnits="userSpaceOnUse">
<stop/>
<stop offset="1" stop-opacity="0"/>
</linearGradient>
</defs>
</svg>
