<svg width="271" height="210" viewBox="0 0 271 210" fill="none" xmlns="http://www.w3.org/2000/svg">
<path d="M3.5 40C3.5 19.8416 19.8416 3.5 40 3.5H231C251.158 3.5 267.5 19.8416 267.5 40V206.5H3.5V40Z" fill="url(#paint0_linear_119_2481)" stroke="url(#paint1_linear_119_2481)" stroke-width="7"/>
<path d="M70 7H202V14C202 19.5228 197.523 24 192 24H80C74.4772 24 70 19.5228 70 14V7Z" fill="black"/>
<g filter="url(#filter0_b_119_2481)">
<rect x="18" y="35" width="238" height="70.273" rx="8.61838" fill="#252525" fill-opacity="0.6"/>
<path d="M228.976 52.6184H229.708V49.9336C229.708 49.1382 230.167 48.6501 230.891 48.6501C231.614 48.6501 231.951 49.0414 231.951 49.8578V52.6184H232.683V49.6811C232.683 48.6038 232.115 48.002 231.097 48.002C230.428 48.002 230.003 48.284 229.775 48.7637H229.708V48.082H228.976V52.6184ZM235.82 52.6984C237.112 52.6984 237.912 51.8062 237.912 50.3544V50.346C237.912 48.8899 237.112 48.002 235.82 48.002C234.528 48.002 233.729 48.8899 233.729 50.346V50.3544C233.729 51.8062 234.528 52.6984 235.82 52.6984ZM235.82 52.0503C234.962 52.0503 234.478 51.4233 234.478 50.3544V50.346C234.478 49.2729 234.962 48.6501 235.82 48.6501C236.679 48.6501 237.162 49.2729 237.162 50.346V50.3544C237.162 51.4233 236.679 52.0503 235.82 52.0503ZM239.702 52.6184H240.434L241.444 49.1088H241.511L242.525 52.6184H243.262L244.533 48.082H243.805L242.913 51.7094H242.845L241.831 48.082H241.137L240.123 51.7094H240.055L239.163 48.082H238.431L239.702 52.6184Z" fill="white" style="mix-blend-mode:overlay"/>
<path d="M228.976 52.6184H229.708V49.9336C229.708 49.1382 230.167 48.6501 230.891 48.6501C231.614 48.6501 231.951 49.0414 231.951 49.8578V52.6184H232.683V49.6811C232.683 48.6038 232.115 48.002 231.097 48.002C230.428 48.002 230.003 48.284 229.775 48.7637H229.708V48.082H228.976V52.6184ZM235.82 52.6984C237.112 52.6984 237.912 51.8062 237.912 50.3544V50.346C237.912 48.8899 237.112 48.002 235.82 48.002C234.528 48.002 233.729 48.8899 233.729 50.346V50.3544C233.729 51.8062 234.528 52.6984 235.82 52.6984ZM235.82 52.0503C234.962 52.0503 234.478 51.4233 234.478 50.3544V50.346C234.478 49.2729 234.962 48.6501 235.82 48.6501C236.679 48.6501 237.162 49.2729 237.162 50.346V50.3544C237.162 51.4233 236.679 52.0503 235.82 52.0503ZM239.702 52.6184H240.434L241.444 49.1088H241.511L242.525 52.6184H243.262L244.533 48.082H243.805L242.913 51.7094H242.845L241.831 48.082H241.137L240.123 51.7094H240.055L239.163 48.082H238.431L239.702 52.6184Z" fill="white" fill-opacity="0.16"/>
<path d="M42.6408 51.2924H43.3898V46.5834H43.4572L46.7522 51.2924H47.4886V45.2199H46.7395V49.9457H46.6722L43.3772 45.2199H42.6408V51.2924ZM51.5344 51.4354C53.2681 51.4354 54.3202 50.194 54.3202 48.2582V48.2498C54.3202 46.3056 53.2597 45.0769 51.5344 45.0769C49.8174 45.0769 48.7485 46.3014 48.7485 48.2498V48.2582C48.7485 50.1982 49.7922 51.4354 51.5344 51.4354ZM51.5344 50.7369C50.2719 50.7369 49.5228 49.7606 49.5228 48.2582V48.2498C49.5228 46.7349 50.2971 45.7754 51.5344 45.7754C52.7758 45.7754 53.5459 46.7349 53.5459 48.2498V48.2582C53.5459 49.7606 52.78 50.7369 51.5344 50.7369ZM56.9057 51.2924H57.6632V45.9017H59.62V45.2199H54.9489V45.9017H56.9057V51.2924ZM60.7368 51.2924H61.4943V45.2199H60.7368V51.2924ZM62.9899 51.2924H63.7473V48.6622H66.4364V47.9889H63.7473V45.9017H66.6762V45.2199H62.9899V51.2924ZM67.8688 51.2924H68.6263V45.2199H67.8688V51.2924ZM72.5668 51.4354C73.8588 51.4354 74.8182 50.7158 75.0202 49.6049V49.5965H74.2543L74.2459 49.6049C74.0565 50.3034 73.4127 50.7369 72.5668 50.7369C71.397 50.7369 70.6647 49.7816 70.6647 48.2625V48.254C70.6647 46.7349 71.397 45.7754 72.5626 45.7754C73.4001 45.7754 74.0481 46.2678 74.2501 47.0463L74.2543 47.0547H75.016L75.0202 47.0463C74.8393 45.8806 73.8419 45.0769 72.5626 45.0769C70.913 45.0769 69.8862 46.2972 69.8862 48.254V48.2625C69.8862 50.2151 70.9172 51.4354 72.5668 51.4354ZM75.5858 51.2924H76.3811L76.9913 49.5544H79.4068L80.017 51.2924H80.8124L78.5736 45.2199H77.8246L75.5858 51.2924ZM78.1654 46.2004H78.2327L79.1838 48.9105H77.2144L78.1654 46.2004ZM82.6867 51.2924H83.4442V45.9017H85.401V45.2199H80.7299V45.9017H82.6867V51.2924ZM86.5178 51.2924H87.2753V45.2199H86.5178V51.2924ZM91.321 51.4354C93.0548 51.4354 94.1069 50.194 94.1069 48.2582V48.2498C94.1069 46.3056 93.0464 45.0769 91.321 45.0769C89.6041 45.0769 88.5352 46.3014 88.5352 48.2498V48.2582C88.5352 50.1982 89.5788 51.4354 91.321 51.4354ZM91.321 50.7369C90.0586 50.7369 89.3095 49.7606 89.3095 48.2582V48.2498C89.3095 46.7349 90.0838 45.7754 91.321 45.7754C92.5625 45.7754 93.3326 46.7349 93.3326 48.2498V48.2582C93.3326 49.7606 92.5667 50.7369 91.321 50.7369ZM95.3668 51.2924H96.1158V46.5834H96.1832L99.4782 51.2924H100.215V45.2199H99.4656V49.9457H99.3982L96.1032 45.2199H95.3668V51.2924Z" fill="white" style="mix-blend-mode:overlay"/>
<path d="M42.6408 51.2924H43.3898V46.5834H43.4572L46.7522 51.2924H47.4886V45.2199H46.7395V49.9457H46.6722L43.3772 45.2199H42.6408V51.2924ZM51.5344 51.4354C53.2681 51.4354 54.3202 50.194 54.3202 48.2582V48.2498C54.3202 46.3056 53.2597 45.0769 51.5344 45.0769C49.8174 45.0769 48.7485 46.3014 48.7485 48.2498V48.2582C48.7485 50.1982 49.7922 51.4354 51.5344 51.4354ZM51.5344 50.7369C50.2719 50.7369 49.5228 49.7606 49.5228 48.2582V48.2498C49.5228 46.7349 50.2971 45.7754 51.5344 45.7754C52.7758 45.7754 53.5459 46.7349 53.5459 48.2498V48.2582C53.5459 49.7606 52.78 50.7369 51.5344 50.7369ZM56.9057 51.2924H57.6632V45.9017H59.62V45.2199H54.9489V45.9017H56.9057V51.2924ZM60.7368 51.2924H61.4943V45.2199H60.7368V51.2924ZM62.9899 51.2924H63.7473V48.6622H66.4364V47.9889H63.7473V45.9017H66.6762V45.2199H62.9899V51.2924ZM67.8688 51.2924H68.6263V45.2199H67.8688V51.2924ZM72.5668 51.4354C73.8588 51.4354 74.8182 50.7158 75.0202 49.6049V49.5965H74.2543L74.2459 49.6049C74.0565 50.3034 73.4127 50.7369 72.5668 50.7369C71.397 50.7369 70.6647 49.7816 70.6647 48.2625V48.254C70.6647 46.7349 71.397 45.7754 72.5626 45.7754C73.4001 45.7754 74.0481 46.2678 74.2501 47.0463L74.2543 47.0547H75.016L75.0202 47.0463C74.8393 45.8806 73.8419 45.0769 72.5626 45.0769C70.913 45.0769 69.8862 46.2972 69.8862 48.254V48.2625C69.8862 50.2151 70.9172 51.4354 72.5668 51.4354ZM75.5858 51.2924H76.3811L76.9913 49.5544H79.4068L80.017 51.2924H80.8124L78.5736 45.2199H77.8246L75.5858 51.2924ZM78.1654 46.2004H78.2327L79.1838 48.9105H77.2144L78.1654 46.2004ZM82.6867 51.2924H83.4442V45.9017H85.401V45.2199H80.7299V45.9017H82.6867V51.2924ZM86.5178 51.2924H87.2753V45.2199H86.5178V51.2924ZM91.321 51.4354C93.0548 51.4354 94.1069 50.194 94.1069 48.2582V48.2498C94.1069 46.3056 93.0464 45.0769 91.321 45.0769C89.6041 45.0769 88.5352 46.3014 88.5352 48.2498V48.2582C88.5352 50.1982 89.5788 51.4354 91.321 51.4354ZM91.321 50.7369C90.0586 50.7369 89.3095 49.7606 89.3095 48.2582V48.2498C89.3095 46.7349 90.0838 45.7754 91.321 45.7754C92.5625 45.7754 93.3326 46.7349 93.3326 48.2498V48.2582C93.3326 49.7606 92.5667 50.7369 91.321 50.7369ZM95.3668 51.2924H96.1158V46.5834H96.1832L99.4782 51.2924H100.215V45.2199H99.4656V49.9457H99.3982L96.1032 45.2199H95.3668V51.2924Z" fill="white" fill-opacity="0.16"/>
<rect x="24.6296" y="41.6295" width="13.2591" height="13.2591" rx="2.87279" fill="black" fill-opacity="0.2"/>
<mask id="mask0_119_2481" style="mask-type:luminance" maskUnits="userSpaceOnUse" x="24" y="41" width="14" height="14">
<rect x="24.6296" y="41.6295" width="13.2591" height="13.2591" rx="2.87279" fill="white"/>
</mask>
<g mask="url(#mask0_119_2481)">
</g>
</g>
<path d="M27.8059 51.3545L28.5236 49.844H30.4944L30.1646 49.1481H28.0458L27 51.3545H27.8059Z" fill="white"/>
<path d="M31.9875 51.3525L28.9761 44.9999H29.7465L31.9872 49.732L34.2307 44.9999H34.9999L31.9875 51.3525Z" fill="white"/>
<rect x="26" y="63" width="79" height="9" rx="2" fill="#6C6B6C"/>
<rect x="26" y="78" width="220" height="7" rx="2" fill="#3A393B"/>
<rect x="26" y="91" width="220" height="7" rx="2" fill="#3A393B"/>
<defs>
<filter id="filter0_b_119_2481" x="-18.0418" y="-1.04184" width="310.084" height="142.357" filterUnits="userSpaceOnUse" color-interpolation-filters="sRGB">
<feFlood flood-opacity="0" result="BackgroundImageFix"/>
<feGaussianBlur in="BackgroundImageFix" stdDeviation="18.0209"/>
<feComposite in2="SourceAlpha" operator="in" result="effect1_backgroundBlur_119_2481"/>
<feBlend mode="normal" in="SourceGraphic" in2="effect1_backgroundBlur_119_2481" result="shape"/>
</filter>
<linearGradient id="paint0_linear_119_2481" x1="135.5" y1="0" x2="135.5" y2="210" gradientUnits="userSpaceOnUse">
<stop stop-color="#181818"/>
<stop offset="1" stop-color="#181818" stop-opacity="0"/>
</linearGradient>
<linearGradient id="paint1_linear_119_2481" x1="135.5" y1="0" x2="135.5" y2="210" gradientUnits="userSpaceOnUse">
<stop/>
<stop offset="1" stop-opacity="0"/>
</linearGradient>
</defs>
</svg>
