<svg width="85" height="64" viewBox="0 0 85 64" fill="none" xmlns="http://www.w3.org/2000/svg">
<path d="M4.52013 35.6391L8.5452 27.1674H19.598L17.7487 23.2643H5.86541L0 35.6391H4.52013Z" fill="white"/>
<path d="M27.9728 35.6283L11.0833 0H15.4043L27.971 26.5396L40.5538 0H44.8676L27.9728 35.6283Z" fill="white"/>
<path d="M38.2292 47.4936V47.1564L36.6597 47.2461C36.3154 47.2676 36.0212 47.3663 35.7737 47.5367C35.5279 47.7089 35.4042 47.9582 35.4042 48.2882C35.4042 48.5645 35.4974 48.7905 35.684 48.9663C35.8705 49.1421 36.1539 49.2299 36.536 49.2299C37.0293 49.2299 37.4257 49.0775 37.7234 48.7708C38.0588 48.4192 38.2274 47.9941 38.2274 47.4936M39.7521 49.8362C39.5727 49.9259 39.3629 49.9707 39.1243 49.9707C38.8857 49.9707 38.6759 49.8882 38.5198 49.7232C38.3638 49.5582 38.2848 49.3537 38.2848 49.1062H38.2633C38.0983 49.3896 37.8472 49.6156 37.5064 49.7842C37.1656 49.9528 36.7943 50.0371 36.3907 50.0371C35.7557 50.0371 35.2696 49.8703 34.9342 49.5385C34.5988 49.2066 34.4302 48.8156 34.4302 48.3672C34.4302 47.8972 34.6006 47.4793 34.9396 47.1188C35.2804 46.7564 35.7862 46.5573 36.4589 46.5197L38.2292 46.4192V46.0049C38.2292 45.639 38.1324 45.3663 37.9387 45.1869C37.7073 44.9699 37.3898 44.8623 36.9862 44.8623C36.5306 44.8623 36.1862 44.9789 35.9548 45.2103C35.7755 45.3896 35.675 45.6103 35.6517 45.8721H34.71C34.7172 45.4381 34.893 45.0506 35.2373 44.7062C35.6553 44.2883 36.2382 44.0784 36.9862 44.0784C37.5082 44.0784 37.9405 44.1807 38.2813 44.3869C38.6203 44.5932 38.8624 44.8641 39.0041 45.1995C39.1153 45.4614 39.1727 45.7412 39.1727 46.0407V48.7869C39.1727 49.0416 39.2839 49.1672 39.5081 49.1672L39.7557 49.1331V49.8398L39.7521 49.8362Z" fill="white"/>
<path d="M47.6747 49.8918H42.7331V49.0846H44.7277V42.5968H42.9017V41.8004H45.6927V49.0846H47.6747V49.8918Z" fill="white"/>
<path d="M54.9591 47.0686C54.9591 46.2991 54.7653 45.7197 54.3761 45.3323C54.0927 45.0489 53.7376 44.9072 53.3124 44.9072C52.9537 44.9072 52.6362 45.0309 52.36 45.2767C51.9349 45.6498 51.7214 46.2471 51.7214 47.0704C51.7214 47.8937 51.9349 48.4784 52.36 48.8515C52.629 49.0901 52.9465 49.2103 53.3124 49.2103C53.7376 49.2103 54.0891 49.0721 54.3654 48.7959C54.7618 48.3995 54.9591 47.8255 54.9591 47.0704M55.933 47.0596C55.933 48.091 55.6461 48.882 55.0703 49.4345C54.629 49.8452 54.0963 50.0515 53.4685 50.0515C53.1169 50.0515 52.7869 49.9762 52.4766 49.8273C52.1663 49.6784 51.9331 49.4829 51.777 49.2443V52.2129H50.8246V44.222H51.664L51.7322 44.9735C51.89 44.6973 52.134 44.4803 52.4658 44.3242C52.7977 44.1664 53.1331 44.0892 53.4685 44.0892C54.125 44.0892 54.6721 44.3134 55.1044 44.7619C55.6568 45.3305 55.933 46.0964 55.933 47.0596Z" fill="white"/>
<path d="M63.6102 49.8918H62.6469V46.2955C62.6469 45.3914 62.2164 44.9394 61.3591 44.9394C61.09 44.9394 60.8443 45.0201 60.6201 45.1798C60.3958 45.3412 60.2201 45.5547 60.0927 45.8237C59.9438 46.152 59.8685 46.6381 59.8685 47.2802V49.8918H58.9053V41.7897H59.8685V44.9717C60.0335 44.6955 60.2775 44.4766 60.6021 44.317C60.9268 44.1574 61.2568 44.0766 61.594 44.0766C62.2362 44.0766 62.733 44.2596 63.0846 44.6255C63.4362 44.9914 63.612 45.5026 63.612 46.1609V49.8918H63.6102Z" fill="white"/>
<path d="M70.5015 47.4936V47.1564L68.932 47.2461C68.5876 47.2676 68.2934 47.3663 68.0459 47.5367C67.8001 47.7089 67.6764 47.9582 67.6764 48.2882C67.6764 48.5645 67.7696 48.7905 67.9562 48.9663C68.1427 49.1421 68.4261 49.2299 68.8082 49.2299C69.3015 49.2299 69.6979 49.0775 69.9956 48.7708C70.3311 48.4192 70.4997 47.9941 70.4997 47.4936M72.0243 49.8362C71.8449 49.9259 71.6351 49.9707 71.3965 49.9707C71.158 49.9707 70.9481 49.8882 70.792 49.7232C70.636 49.5582 70.5571 49.3537 70.5571 49.1062H70.5355C70.3705 49.3896 70.1194 49.6156 69.7786 49.7842C69.4378 49.9528 69.0665 50.0371 68.6629 50.0371C68.0279 50.0371 67.5418 49.8703 67.2064 49.5385C66.871 49.2066 66.7024 48.8156 66.7024 48.3672C66.7024 47.8972 66.8728 47.4793 67.2118 47.1188C67.5526 46.7564 68.0584 46.5573 68.7311 46.5197L70.5015 46.4192V46.0049C70.5015 45.639 70.4046 45.3663 70.2109 45.1869C69.9795 44.9699 69.662 44.8623 69.2584 44.8623C68.8028 44.8623 68.4584 44.9789 68.227 45.2103C68.0477 45.3896 67.9472 45.6103 67.9239 45.8721H66.9822C66.9894 45.4381 67.1652 45.0506 67.5096 44.7062C67.9275 44.2883 68.5104 44.0784 69.2584 44.0784C69.7804 44.0784 70.2127 44.1807 70.5535 44.3869C70.8925 44.5932 71.1346 44.8641 71.2763 45.1995C71.3875 45.4614 71.4449 45.7412 71.4449 46.0407V48.7869C71.4449 49.0416 71.5562 49.1672 71.7804 49.1672L72.0279 49.1331V49.8398L72.0243 49.8362Z" fill="white"/>
<path d="M44.5574 57.2855L42.3493 62.9447H41.2175L38.9772 57.2855H40.0193L41.822 62.003L43.5601 57.2855H44.5574Z" fill="white"/>
<path d="M50.7654 56.1985H49.4094V54.8532H50.7654V56.1985ZM52.6811 62.9446H47.6049V62.1267H49.6551V58.0819H47.8291V57.2747H50.6201V62.1267H52.6811V62.9446Z" fill="white"/>
<path d="M56.2344 57.8236C56.7115 57.3608 57.3034 57.1295 58.0048 57.1295C58.7061 57.1295 59.2478 57.3357 59.6747 57.7465C60.107 58.1644 60.3437 58.6469 60.3814 59.1922H59.4182C59.3805 58.8711 59.2316 58.5806 58.9698 58.3187C58.7151 58.0801 58.394 57.9599 58.0066 57.9599C57.6191 57.9599 57.2514 58.0945 56.9536 58.3635C56.5429 58.7366 56.3366 59.3196 56.3366 60.1124C56.3366 60.9052 56.5411 61.4756 56.9536 61.8487C57.2604 62.1249 57.6119 62.263 58.0066 62.263C58.4012 62.263 58.7169 62.1429 58.9698 61.9043C59.2388 61.6352 59.3913 61.3447 59.429 61.0308H60.3814C60.3437 61.576 60.1052 62.0621 59.6639 62.4872C59.246 62.8908 58.6935 63.0917 58.0048 63.0917C57.316 63.0917 56.7115 62.8603 56.2344 62.3976C55.6514 61.8218 55.3608 61.0595 55.3608 60.1124C55.3608 59.1653 55.6514 58.4012 56.2344 57.8272" fill="white"/>
<path d="M68.3473 62.6648C67.8773 62.9338 67.3536 63.0683 66.7778 63.0683C66.202 63.0683 65.7267 62.8944 65.4164 62.5482C65.106 62.2002 64.9518 61.7769 64.9518 61.2764V58.0944H63.1814V57.2765H64.9518V55.8092L65.9042 55.5061V57.2765H68.2791V58.0944H65.9042V61.1868C65.9042 61.5007 65.9921 61.7482 66.1679 61.9311C66.3437 62.1141 66.5912 62.2056 66.9123 62.2056C67.3087 62.2056 67.7858 62.0782 68.3473 61.8253V62.6666V62.6648Z" fill="white"/>
<path d="M75.732 60.1088C75.732 59.3321 75.5185 58.7492 75.0934 58.3599C74.7939 58.0909 74.4441 57.9563 74.0405 57.9563C73.6369 57.9563 73.2854 58.0909 72.9876 58.3599C72.5625 58.7492 72.3491 59.3267 72.3491 60.0962C72.3491 60.8657 72.5625 61.4666 72.9876 61.8558C73.2872 62.1249 73.6369 62.2594 74.0405 62.2594C74.4441 62.2594 74.7957 62.1249 75.0934 61.8558C75.5185 61.4666 75.732 60.8855 75.732 60.107M76.706 60.0962C76.706 61.0523 76.41 61.8218 75.8199 62.4047C75.3499 62.8603 74.7598 63.0881 74.0495 63.0881C73.3392 63.0881 72.7275 62.8603 72.2558 62.4047C71.6656 61.8218 71.3697 61.0559 71.3697 60.107C71.3697 59.1581 71.6639 58.3922 72.2558 57.8093C72.7257 57.3537 73.3248 57.1259 74.0495 57.1259C74.7741 57.1259 75.3499 57.3537 75.8199 57.8093C76.41 58.3922 76.706 59.1545 76.706 60.0944" fill="white"/>
<path d="M85 59.1903H84.026C84.026 58.8621 83.9256 58.5859 83.7229 58.3616C83.4987 58.1141 83.1991 57.9921 82.826 57.9921C82.5498 57.9921 82.2933 58.0836 82.0583 58.2666C81.8234 58.4495 81.6458 58.6791 81.5256 58.9554C81.3606 59.3446 81.2799 59.8325 81.2799 60.4226V62.9446H80.3167V57.2747H81.1561L81.235 58.1267C81.4072 57.7984 81.6548 57.5491 81.9794 57.3823C82.3041 57.2137 82.6538 57.1312 83.0269 57.1312C83.7139 57.1312 84.252 57.4074 84.6413 57.9599C84.8798 58.3114 85 58.7222 85 59.1921" fill="white"/>
</svg>
